<?xml version="1.0" encoding="UTF-8" standalone="no"?>
<svg width="375px" height="185px" viewBox="0 0 375 185" version="1.1" xmlns="http://www.w3.org/2000/svg" xmlns:xlink="http://www.w3.org/1999/xlink">
    <!-- Generator: Sketch 3.8.3 (29802) - http://www.bohemiancoding.com/sketch -->
    <title>Group</title>
    <desc>Created with Sketch.</desc>
    <defs></defs>
    <g id="Page-1" stroke="none" stroke-width="1" fill="none" fill-rule="evenodd">
        <g id="Group">
            <path d="M14,18 L278.218069,18" id="wire" stroke="#D2E9EA" stroke-width="3"></path>
            <path d="M290.910375,41 L353.718069,41" id="wire" stroke="#D2E9EA" stroke-width="3"></path>
            <path d="M263,7.44587977 C263,3.02547257 266.57906,-0.395732347 270.972475,0.036955848 C270.972475,0.036955848 317.228578,-0.557975493 317.228578,41.5768408 C317.228578,83.711656 270.972475,83.1167256 270.972475,83.1167256 C266.569399,83.4452971 263,80.1310988 263,75.7078018 L263,7.44587977 Z" id="and" fill="#D2E9EA"></path>
            <path d="M13,31.0095459 C20.1797017,31.0095459 26,25.1871107 26,18.0047729 C26,10.8224352 20.1797017,5 13,5 C5.82029825,5 0,10.8224352 0,18.0047729 C0,25.1871107 5.82029825,31.0095459 13,31.0095459 Z" id="switch" fill="#D2E9EA"></path>
            <path d="M362,54.0095459 C369.179702,54.0095459 375,48.1871107 375,41.0047729 C375,33.8224352 369.179702,28 362,28 C354.820298,28 349,33.8224352 349,41.0047729 C349,48.1871107 354.820298,54.0095459 362,54.0095459 Z" id="led" fill="#D2E9EA"></path>
            <path d="M10.5,142 L83.7180688,142" id="wire" stroke="#D2E9EA" stroke-width="3"></path>
            <path d="M97,142.298514 C97,142.298514 122.454508,142.984593 143.902925,142.852736 C165.351341,142.720879 159.807695,125.773123 159.807694,101.298514 C159.807693,76.823904 159.807693,66 179.807694,66 C199.807695,66 274.595032,66 274.595032,66" id="wire" stroke="#D2E9EA" stroke-width="3"></path>
            <path d="M13,155.009546 C20.1797017,155.009546 26,149.187111 26,142.004773 C26,134.822435 20.1797017,129 13,129 C5.82029825,129 0,134.822435 0,142.004773 C0,149.187111 5.82029825,155.009546 13,155.009546 Z" id="switch" fill="#D2E9EA"></path>
            <path d="M112.818241,137.687138 C112.748696,137.625427 112.677417,137.56456 112.604403,137.504579 L68.5683063,101.329042 C65.4959029,98.8050709 63,99.9817346 63,103.962492 L63,180.195363 C63,184.176935 65.4930157,185.355156 68.5683063,182.828813 L112.604403,146.653276 C112.655618,146.611204 112.705979,146.568694 112.755487,146.525761 C114.346977,149.660735 117.601719,151.808973 121.358209,151.808973 C126.683223,151.808973 131,147.492196 131,142.167182 C131,136.842168 126.683223,132.525391 121.358209,132.525391 C117.650434,132.525391 114.431478,134.618273 112.818241,137.687138 Z" id="not" fill="#D2E9EA"></path>
        </g>
    </g>
</svg>