<?xml version="1.0" encoding="UTF-8" standalone="no"?>
<svg width="138px" height="245px" viewBox="0 0 138 245" version="1.1" xmlns="http://www.w3.org/2000/svg" xmlns:xlink="http://www.w3.org/1999/xlink">
    <!-- Generator: Sketch 3.7.1 (28215) - http://www.bohemiancoding.com/sketch -->
    <title>circuit</title>
    <desc>Created with Sketch.</desc>
    <defs></defs>
    <g id="Page-1" stroke="none" stroke-width="1" fill="none" fill-rule="evenodd">
        <g id="circuit">
            <path d="M95.2264152,195.89713 C95.2264166,164.576817 78.6928846,151.321986 78.6928846,151.321986 C75.6738369,148.110083 76.8007618,145.652735 81.2135861,146.040282 C81.2135861,146.040282 137.574071,145.506321 137.574071,195.506321 C137.574071,245.50632 81.1974063,244.974133 81.1974063,244.974133 C76.7951495,245.268052 75.8147877,243.048195 78.7921585,239.76802 C78.7921585,239.76802 95.2264138,227.217443 95.2264152,195.89713 Z" id="and-7" fill="#8CCED9"></path>
            <path d="M73,7.48926326 C73,3.07465563 76.5743466,-0.357676815 80.9871709,0.0298703385 C80.9871709,0.0298703385 137.347656,-0.504090957 137.347656,49.495909 C137.347656,99.4959079 80.9709911,98.9637216 80.9709911,98.9637216 C76.5687343,99.2576406 73,95.9073725 73,91.5025548 L73,7.48926326 Z" id="and-6" fill="#8CCED9"></path>
            <polyline id="wire-5" stroke="#8CCED9" stroke-width="3" points="57.9296875 24.109375 57.9296875 167.048174 102.016293 167.048174"></polyline>
            <path d="M16.5,24.5 L91.5488968,24.5" id="wire-4" stroke="#8CCED9" stroke-width="3" stroke-linecap="square"></path>
            <polyline id="wire-3" stroke="#8CCED9" stroke-width="3" points="45 76 45 218.938799 100.425781 218.938797"></polyline>
            <path d="M12.5,75.5 L90.5488968,75.5" id="wire-2" stroke="#8CCED9" stroke-width="3" stroke-linecap="square"></path>
            <circle id="switch-1" fill="#FFAA00" cx="9.5" cy="75.5" r="9.5"></circle>
            <circle id="switch-0" fill="#FFAA00" cx="9.5" cy="24.5" r="9.5"></circle>
        </g>
    </g>
</svg>