<?xml version="1.0" encoding="UTF-8" standalone="no"?>
<svg width="1818px" height="831px" viewBox="0 0 1818 831" version="1.1" xmlns="http://www.w3.org/2000/svg" xmlns:xlink="http://www.w3.org/1999/xlink">
    <!-- Generator: Sketch 41.1 (35376) - http://www.bohemiancoding.com/sketch -->
    <title>Group</title>
    <desc>Created with Sketch.</desc>
    <defs></defs>
    <g id="Page-1" stroke="none" stroke-width="1" fill="none" fill-rule="evenodd">
        <g id="Group" transform="translate(0.000000, 2.000000)">
            <path d="M15.2539971,521.782529 C23.5352279,521.782529 30.2484919,515.0668 30.2484919,506.782529 C30.2484919,498.498258 23.5352279,491.782529 15.2539971,491.782529 C6.97276634,491.782529 0.259502362,498.498258 0.259502362,506.782529 C0.259502362,515.0668 6.97276634,521.782529 15.2539971,521.782529 Z" id="switch" fill="#D2E9EA" transform="translate(15.253997, 506.782529) rotate(1.000000) translate(-15.253997, -506.782529) "></path>
            <path d="M15.2539971,558.782529 C23.5352279,558.782529 30.2484919,552.0668 30.2484919,543.782529 C30.2484919,535.498258 23.5352279,528.782529 15.2539971,528.782529 C6.97276634,528.782529 0.259502362,535.498258 0.259502362,543.782529 C0.259502362,552.0668 6.97276634,558.782529 15.2539971,558.782529 Z" id="switch" fill="#D2E9EA" transform="translate(15.253997, 543.782529) rotate(1.000000) translate(-15.253997, -543.782529) "></path>
            <path d="M15.5134995,597.041934 C23.7947303,597.041934 30.5079943,590.326205 30.5079943,582.041934 C30.5079943,573.757663 23.7947303,567.041934 15.5134995,567.041934 C7.23226871,567.041934 0.519004725,573.757663 0.519004725,582.041934 C0.519004725,590.326205 7.23226871,597.041934 15.5134995,597.041934 Z" id="switch" fill="#D2E9EA" transform="translate(15.513500, 582.041934) rotate(1.000000) translate(-15.513500, -582.041934) "></path>
            <path d="M15.2539971,773.782529 C23.5352279,773.782529 30.2484919,767.0668 30.2484919,758.782529 C30.2484919,750.498258 23.5352279,743.782529 15.2539971,743.782529 C6.97276634,743.782529 0.259502362,750.498258 0.259502362,758.782529 C0.259502362,767.0668 6.97276634,773.782529 15.2539971,773.782529 Z" id="switch" fill="#D2E9EA" transform="translate(15.253997, 758.782529) rotate(1.000000) translate(-15.253997, -758.782529) "></path>
            <path d="M260.447379,324.701027 C260.447381,298.307514 247.307028,288.117778 247.307028,288.117778 C244.324686,284.869846 245.48608,282.39912 249.879494,282.831808 C249.879494,282.831808 296.135598,282.236877 296.135598,324.371693 C296.135598,366.506508 249.879494,365.911578 249.879494,365.911578 C245.476418,366.24015 244.484977,364.023735 247.394485,360.709939 C247.394485,360.709939 260.447378,351.09454 260.447379,324.701027 Z M233.288773,362.811339 C230.801483,360.308645 246.159607,349.491964 246.159604,324.388008 C246.1596,299.284052 228.608958,288.357401 231.603286,285.684052 C234.597613,283.010703 253.533549,292.564055 253.533549,324.388008 C253.533549,356.211961 235.776063,365.314034 233.288773,362.811339 Z" id="xor" fill="#D2E9EA"></path>
            <path d="M242.259502,463.228409 C242.259502,458.808001 245.838563,455.386796 250.231978,455.819485 C250.231978,455.819485 296.488081,455.224553 296.488081,497.35937 C296.488081,539.494185 250.231978,538.899254 250.231978,538.899254 C245.828901,539.227826 242.259502,535.913628 242.259502,531.490331 L242.259502,463.228409 Z" id="and" fill="#D2E9EA"></path>
            <path d="M86.2595024,507.18181 C86.2595024,507.18181 161.86238,506.782526 182.978651,506.782529 C204.094921,506.782531 204.094921,525.212268 224.639819,525.255236 C245.184717,525.298204 243.870288,525.212267 243.870288,525.212267" id="wire" stroke="#D2E9EA" stroke-width="3"></path>
            <path d="M17.2595024,506.782529 C32.2258201,506.782529 159.391228,506.782529 177.84099,506.782529 C196.290752,506.782529 206.462719,506.782529 206.462729,487.256004 C206.462739,467.729479 206.462739,379.376977 206.462729,364.094981 C206.462719,348.812985 206.462734,348.812985 229.520788,348.812985 L244.870288,348.812985" id="wire" stroke="#D2E9EA" stroke-width="3"></path>
            <path d="M522.447379,324.701027 C522.447381,298.307514 509.307028,288.117778 509.307028,288.117778 C506.324686,284.869846 507.48608,282.39912 511.879494,282.831808 C511.879494,282.831808 558.135598,282.236877 558.135598,324.371693 C558.135598,366.506508 511.879494,365.911578 511.879494,365.911578 C507.476418,366.24015 506.484977,364.023735 509.394485,360.709939 C509.394485,360.709939 522.447378,351.09454 522.447379,324.701027 Z M495.288773,362.811339 C492.801483,360.308645 508.159607,349.491964 508.159604,324.388008 C508.1596,299.284052 490.608958,288.357401 493.603286,285.684052 C496.597613,283.010703 515.533549,292.564055 515.533549,324.388008 C515.533549,356.211961 497.776063,365.314034 495.288773,362.811339 Z" id="xor" fill="#D2E9EA"></path>
            <path d="M618.447379,408.701027 C618.447381,382.307514 605.307028,372.117778 605.307028,372.117778 C602.324686,368.869846 603.48608,366.39912 607.879494,366.831808 C607.879494,366.831808 654.135598,366.236877 654.135598,408.371693 C654.135598,450.506508 607.879494,449.911578 607.879494,449.911578 C603.476418,450.24015 602.484977,448.023735 605.394485,444.709939 C605.394485,444.709939 618.447378,435.09454 618.447379,408.701027 Z M591.288773,446.811339 C588.801483,444.308645 604.159607,433.491964 604.159604,408.388008 C604.1596,383.284052 586.608958,372.357401 589.603286,369.684052 C592.597613,367.010703 611.533549,376.564055 611.533549,408.388008 C611.533549,440.211961 593.776063,449.314034 591.288773,446.811339 Z" id="xor" fill="#D2E9EA"></path>
            <path d="M493.259502,463.228409 C493.259502,458.808001 496.838563,455.386796 501.231978,455.819485 C501.231978,455.819485 547.488081,455.224553 547.488081,497.35937 C547.488081,539.494185 501.231978,538.899254 501.231978,538.899254 C496.828901,539.227826 493.259502,535.913628 493.259502,531.490331 L493.259502,463.228409 Z" id="and" fill="#D2E9EA"></path>
            <path d="M493.259502,563.228409 C493.259502,558.808001 496.838563,555.386796 501.231978,555.819485 C501.231978,555.819485 547.488081,555.224553 547.488081,597.35937 C547.488081,639.494185 501.231978,638.899254 501.231978,638.899254 C496.828901,639.227826 493.259502,635.913628 493.259502,631.490331 L493.259502,563.228409 Z" id="and" fill="#D2E9EA"></path>
            <path d="M604.05493,526.701027 C604.054932,500.307514 590.914579,490.117778 590.914579,490.117778 C587.932237,486.869846 589.09363,484.39912 593.487045,484.831808 C593.487045,484.831808 639.743149,484.236877 639.743149,526.371693 C639.743149,568.506508 593.487045,567.911578 593.487045,567.911578 C589.083969,568.24015 588.092528,566.023735 591.002036,562.709939 C591.002036,562.709939 604.054929,553.09454 604.05493,526.701027 Z" id="or" fill="#D2E9EA"></path>
            <path d="M509.283848,599.640171 C509.283848,599.640171 507.374476,599.640171 537.374477,599.640171 C567.374477,599.640172 567.374477,599.747342 567.374477,577.264935 C567.374477,554.782529 567.374477,554.782529 587.027149,554.782529 L600.744802,554.782529" id="wire" stroke="#D2E9EA" stroke-width="3"></path>
            <path d="M545.963104,325.436978 C552.851085,325.436978 548.160524,324.782529 562.311652,324.782529 C576.46278,324.782529 576.46278,324.782529 576.46278,354.436978 C576.46278,357.300919 576.46278,345.872405 576.46278,356.276822 C576.46278,379.526433 576.46278,379.526433 555.948956,379.526433 C535.435131,379.526433 500.142315,379.526433 466.700909,379.526433 C433.259502,379.526433 433.259502,379.526433 433.259502,409.872525 C433.259502,440.218618 433.259502,510.585093 433.259502,541.585102 C433.259502,555.594737 433.259502,572.585095 453.482159,572.585095 C473.704815,572.585095 482.901338,572.585098 500.658423,572.585102" id="wire" stroke="#D2E9EA" stroke-width="3"></path>
            <path d="M546.259502,323.782529 C553.147483,323.782529 548.456922,324.128079 562.60805,324.128079 C576.759178,324.128079 576.759178,324.128079 576.759178,351.622373 C576.759178,379.116666 576.759178,379.871983 599.997307,379.871983" id="wire" stroke="#D2E9EA" stroke-width="3"></path>
            <path d="M518.259502,498.782529 L607.704815,498.782529" id="wire" stroke="#D2E9EA" stroke-width="3"></path>
            <path d="M266.259502,497.782529 C278.538471,497.782529 334.827862,497.78253 374.853252,497.782529 C414.878643,497.782527 414.878643,497.782527 414.878643,471.120418 C414.878643,444.458309 414.878643,494.147764 414.878643,463.675107 C414.878643,433.202451 414.878643,433.202451 441.476299,433.202451 L605.011885,433.202451" id="wire" stroke="#D2E9EA" stroke-width="3"></path>
            <path d="M267.372784,497.762998 C282.786693,497.762998 343.238092,497.762997 378.168132,497.762998 C413.098171,497.762998 415.798565,497.762998 415.798567,519.791879 C415.798567,528.867618 415.798567,561.272763 415.798567,592.237607 C415.798567,623.202451 415.798567,623.202451 451.476299,623.202451 L515.011885,623.202451" id="wire" stroke="#D2E9EA" stroke-width="3"></path>
            <path d="M618.259502,524.782529 C630.538471,524.782529 666.827862,524.78253 706.853252,524.782529 C746.878643,524.782527 746.878643,524.782527 746.878643,498.120418 L746.878643,463.675107 C746.878643,433.202451 746.878643,433.202451 773.476299,433.202451 L937.011885,433.202451" id="wire" stroke="#D2E9EA" stroke-width="3"></path>
            <path d="M855.447379,324.701027 C855.447381,298.307514 842.307028,288.117778 842.307028,288.117778 C839.324686,284.869846 840.48608,282.39912 844.879494,282.831808 C844.879494,282.831808 891.135598,282.236877 891.135598,324.371693 C891.135598,366.506508 844.879494,365.911578 844.879494,365.911578 C840.476418,366.24015 839.484977,364.023735 842.394485,360.709939 C842.394485,360.709939 855.447378,351.09454 855.447379,324.701027 Z M828.288773,362.811339 C825.801483,360.308645 841.159607,349.491964 841.159604,324.388008 C841.1596,299.284052 823.608958,288.357401 826.603286,285.684052 C829.597613,283.010703 848.533549,292.564055 848.533549,324.388008 C848.533549,356.211961 830.776063,365.314034 828.288773,362.811339 Z" id="xor" fill="#D2E9EA"></path>
            <path d="M951.447379,408.701027 C951.447381,382.307514 938.307028,372.117778 938.307028,372.117778 C935.324686,368.869846 936.48608,366.39912 940.879494,366.831808 C940.879494,366.831808 987.135598,366.236877 987.135598,408.371693 C987.135598,450.506508 940.879494,449.911578 940.879494,449.911578 C936.476418,450.24015 935.484977,448.023735 938.394485,444.709939 C938.394485,444.709939 951.447378,435.09454 951.447379,408.701027 Z M924.288773,446.811339 C921.801483,444.308645 937.159607,433.491964 937.159604,408.388008 C937.1596,383.284052 919.608958,372.357401 922.603286,369.684052 C925.597613,367.010703 944.533549,376.564055 944.533549,408.388008 C944.533549,440.211961 926.776063,449.314034 924.288773,446.811339 Z" id="xor" fill="#D2E9EA"></path>
            <path d="M968.283848,411.640171 C968.283848,411.640171 976.374476,411.640171 990.374477,411.640171 C1004.37448,411.640171 1004.37448,434.807466 1004.37448,434.807466 L1004.37448,785.264935 C1004.37448,814.782529 1004.37448,814.782528 1035.02715,814.782529 C1065.67982,814.782529 1263.7448,814.782529 1263.7448,814.782529" id="wire" stroke="#D2E9EA" stroke-width="3"></path>
            <path d="M879.259502,323.782529 C886.147483,323.782529 881.456922,324.128079 895.60805,324.128079 C909.759178,324.128079 909.759178,324.128079 909.759178,351.622373 C909.759178,379.116666 909.759178,379.871983 932.997307,379.871983" id="wire" stroke="#D2E9EA" stroke-width="3"></path>
            <path d="M83.3024711,544.055966 C83.3024711,544.055966 125.583462,544.055978 144.034025,544.055973 C162.484589,544.055968 162.484589,544.055968 162.484589,514.262998 C162.48459,484.470027 162.484589,308.175709 162.484589,288.293354 C162.484589,268.410999 162.484589,268.410999 191.552471,268.410999 C220.620354,268.410999 394.986187,268.411001 420.888409,268.410999 C446.79063,268.410998 457.042522,268.410999 457.042538,294.186825 C457.042553,319.96265 457.042522,489.484849 457.042538,508.315051 C457.042553,527.145252 457.042522,527.145252 473.259502,527.145252 C489.476482,527.145251 494.832026,527.145251 494.832026,527.145251" id="wire" stroke="#D2E9EA" stroke-width="3"></path>
            <path d="M16.3024711,544.055966 C16.3024711,544.055966 125.583462,544.055978 144.034025,544.055973 C162.484589,544.055968 162.484589,544.055968 162.484589,514.262998 C162.48459,484.470027 162.484589,308.175709 162.484589,288.293354 C162.484589,268.410999 162.484589,268.410999 191.552471,268.410999 C220.620354,268.410999 394.986187,268.411001 420.888409,268.410999 C446.79063,268.410998 457.042522,268.410999 457.042538,294.186825 C457.042553,319.96265 457.042522,311.484849 457.042538,330.315051 C457.042553,349.145252 457.042522,349.145252 473.259502,349.145252 C489.476482,349.145251 506.832026,349.145251 506.832026,349.145251" id="wire" stroke="#D2E9EA" stroke-width="3"></path>
            <path d="M16.3024711,582.055966 C16.3024711,582.055966 94.5834617,582.055978 113.034025,582.055973 C131.484589,582.055968 131.484589,582.055968 131.484589,552.262998 C131.48459,522.470027 131.484589,276.175709 131.484589,256.293354 C131.484589,236.410999 131.484589,236.410999 160.552471,236.410999 C189.620354,236.410999 728.384502,236.410998 759.888409,236.410999 C791.392315,236.411001 793.535244,236.411006 793.630596,265.186825 C793.781109,310.609348 793.630596,282.145252 793.630596,316.145252 C793.630596,350.145252 793.630596,350.145252 819.53294,350.145252 C845.435284,350.145252 838.832026,350.145251 838.832026,350.145251" id="wire" stroke="#D2E9EA" stroke-width="3"></path>
            <path d="M278.654034,324.845029 C278.654034,324.845029 286.88482,324.845025 306.884821,324.845029 C326.884823,324.845032 326.884823,324.845029 326.884821,352.280576 C326.88482,379.716123 327.718716,650.432967 326.884821,670.432973 C326.050926,690.432979 326.884823,690.432979 351.560284,690.432973 C376.235744,690.432967 994.598185,690.432967 1014.59819,690.432973 C1034.59819,690.432979 1034.59819,690.432979 1034.59819,662.888974 C1034.59818,635.344969 1034.59819,336.965542 1034.59819,296.965543 C1034.59819,256.965543 1034.59819,256.965543 1079.20091,256.965543 C1123.80363,256.965542 1262.20858,256.965543 1262.20858,256.965543" id="wire" stroke="#D2E9EA" stroke-width="3"></path>
            <path d="M638.462627,408.134091 C638.462627,408.134091 649.693096,408.134091 667.693096,408.134091 C685.693096,408.134091 685.693096,408.134091 685.693096,428.634091 C685.693096,449.134091 684.697159,642.516832 685.693096,659.516837 C686.689033,676.516843 685.693096,676.516843 708.390362,676.516837 C726.793554,676.516833 965.247631,676.516831 992.831768,676.516837 C1020.4159,676.516843 1019.4159,676.516843 1019.4159,656.516837 C1019.41589,636.516832 1019.41592,576.643106 1019.4159,556.643107 C1019.41589,547.281948 1021.87474,536.643107 1035.78117,536.643107 C1049.68761,536.643106 1264.6101,536.643107 1264.6101,536.643107" id="wire" stroke="#D2E9EA" stroke-width="3"></path>
            <path d="M1247.2595,75.2284085 C1247.2595,70.8080013 1250.83856,67.3867964 1255.23198,67.8194846 C1255.23198,67.8194846 1301.48808,67.2245533 1301.48808,109.35937 C1301.48808,151.494185 1255.23198,150.899254 1255.23198,150.899254 C1250.8289,151.227826 1247.2595,147.913628 1247.2595,143.490331 L1247.2595,75.2284085 Z" id="and" fill="#D2E9EA"></path>
            <path d="M1247.2595,198.228409 C1247.2595,193.808001 1250.83856,190.386796 1255.23198,190.819485 C1255.23198,190.819485 1301.48808,190.224553 1301.48808,232.35937 C1301.48808,274.494185 1255.23198,273.899254 1255.23198,273.899254 C1250.8289,274.227826 1247.2595,270.913628 1247.2595,266.490331 L1247.2595,198.228409 Z" id="and" fill="#D2E9EA"></path>
            <path d="M1368.05493,108.701027 C1368.05493,82.3075144 1354.91458,72.1177781 1354.91458,72.1177781 C1351.93224,68.8698461 1353.09363,66.3991201 1357.48705,66.8318083 C1357.48705,66.8318083 1403.74315,66.236877 1403.74315,108.371693 C1403.74315,150.506508 1357.48705,149.911578 1357.48705,149.911578 C1353.08397,150.24015 1352.09253,148.023735 1355.00204,144.709939 C1355.00204,144.709939 1368.05493,135.09454 1368.05493,108.701027 Z" id="or" fill="#D2E9EA"></path>
            <path d="M1273.28385,232.640171 C1273.28385,232.640171 1278.12888,232.640171 1301.37448,232.640171 C1324.62007,232.640171 1324.62007,230.672868 1324.62007,183.227699 C1324.62007,135.782529 1326.01432,135.782529 1351.02715,135.782529 L1378.7448,135.782529" id="wire" stroke="#D2E9EA" stroke-width="3"></path>
            <path d="M1272.2595,110.782529 C1272.2595,110.782529 1271.41354,110.782529 1296.447,110.782529 C1321.48046,110.782529 1322.51731,109.782529 1322.51731,94.7825288 C1322.51731,79.7825288 1321.48546,78.7825288 1346.71653,78.7825288 L1370.70481,78.7825288" id="wire" stroke="#D2E9EA" stroke-width="3"></path>
            <path d="M1193.89974,201.08959 C1193.53403,200.499702 1193.05082,199.94631 1192.45014,199.452859 L1162.81889,175.110866 C1159.74726,172.587525 1157.2595,173.765969 1157.2595,177.740665 L1157.2595,230.299103 C1157.2595,234.266689 1159.74853,235.451201 1162.81889,232.928902 L1192.45014,208.58691 C1193.03219,208.108763 1193.50389,207.574421 1193.86529,207.005188 C1194.98023,209.48201 1197.4699,211.206402 1200.36231,211.206402 C1204.29532,211.206402 1207.48365,208.018072 1207.48365,204.085068 C1207.48365,200.152064 1204.29532,196.963734 1200.36231,196.963734 C1197.49932,196.963734 1195.03093,198.653219 1193.89974,201.08959 Z" id="not" fill="#D2E9EA"></path>
            <path d="M1162.81889,163.928902 C1159.74853,166.451201 1157.2595,165.266689 1157.2595,161.299103 L1157.2595,108.740665 C1157.2595,104.765969 1159.74726,103.587525 1162.81889,106.110866 L1192.45014,130.452859 C1195.52051,132.975157 1195.52178,137.063568 1192.45014,139.58691 L1162.81889,163.928902 Z" id="buffer" fill="#D2E9EA"></path>
            <path d="M1377.2595,108.782529 C1377.2595,108.782529 1381.13513,108.012478 1403.66118,108.429241 C1422.75641,108.782529 1422.75641,108.782529 1422.75641,125.888197 L1422.75641,230.530576 C1422.75641,258.282529 1424.18919,258.282529 1456.92747,258.282529 C1489.66575,258.282529 1503.2595,258.282529 1503.2595,258.282529" id="wire" stroke="#D2E9EA" stroke-width="3"></path>
            <path d="M1180.2595,134.782529 L1259.2595,134.782529" id="wire" stroke="#D2E9EA" stroke-width="3"></path>
            <path d="M1174.2595,134.782529 C1174.2595,134.782529 1198.36666,134.782529 1212.81308,134.782529 C1227.2595,134.782529 1227.2595,134.782529 1227.2595,155.591123 C1227.2595,176.399716 1227.2595,176.464169 1246.2595,176.464169 C1253.69667,176.464169 1416.77274,176.464169 1435.13646,176.464169 C1453.50017,176.464169 1453.50017,178.464169 1453.50017,191.973935 C1453.50017,205.483701 1453.50017,204.819623 1472.56224,204.819623 C1491.6243,204.819623 1498.84084,204.819623 1498.84084,204.819623" id="wire" stroke="#D2E9EA" stroke-width="3"></path>
            <path d="M1180.2595,204.782529 C1212.2595,204.782529 1212.2595,202.718076 1212.2595,183.591123 C1212.2595,164.464169 1212.2595,164.464169 1241.2595,164.464169 C1270.2595,164.464169 1417.01341,164.464169 1435.13646,164.464169 C1453.2595,164.464169 1453.50017,165.128247 1453.50017,149.973935 C1453.50017,134.819623 1453.15208,134.856717 1467.56224,134.819623 C1481.97239,134.782529 1498.84084,134.819623 1498.84084,134.819623" id="wire" stroke="#D2E9EA" stroke-width="3"></path>
            <path d="M1384.26997,108.782529 C1384.26997,108.782529 1385.06326,108.782529 1404.08879,108.782529 C1423.11432,108.782529 1423.11432,108.782529 1423.11432,91.6419038 C1423.11432,74.5012788 1423.11432,81.8606315 1423.11432,68.3215801 C1423.11432,54.7825288 1423.11432,54.7825288 1405.62175,54.7825288 C1388.12918,54.7825288 1271.03825,54.7825288 1245.14888,54.7825288 C1219.2595,54.7825288 1219.2595,54.7825288 1219.2595,66.5110444 C1219.2595,78.23956 1219.2595,78.8443854 1228.29341,78.8443854 C1237.32731,78.8443854 1258.10994,78.8443854 1258.10994,78.8443854" id="wire" stroke="#D2E9EA" stroke-width="3"></path>
            <path d="M1181.39036,205.032529 L1256.49424,205.032529" id="wire" stroke="#D2E9EA" stroke-width="3"></path>
            <path d="M1481.2595,75.2284085 C1481.2595,70.8080013 1484.83856,67.3867964 1489.23198,67.8194846 C1489.23198,67.8194846 1535.48808,67.2245533 1535.48808,109.35937 C1535.48808,151.494185 1489.23198,150.899254 1489.23198,150.899254 C1484.8289,151.227826 1481.2595,147.913628 1481.2595,143.490331 L1481.2595,75.2284085 Z" id="and" fill="#D2E9EA"></path>
            <path d="M1481.2595,198.228409 C1481.2595,193.808001 1484.83856,190.386796 1489.23198,190.819485 C1489.23198,190.819485 1535.48808,190.224553 1535.48808,232.35937 C1535.48808,274.494185 1489.23198,273.899254 1489.23198,273.899254 C1484.8289,274.227826 1481.2595,270.913628 1481.2595,266.490331 L1481.2595,198.228409 Z" id="and" fill="#D2E9EA"></path>
            <path d="M1602.05493,108.701027 C1602.05493,82.3075144 1588.91458,72.1177781 1588.91458,72.1177781 C1585.93224,68.8698461 1587.09363,66.3991201 1591.48705,66.8318083 C1591.48705,66.8318083 1637.74315,66.236877 1637.74315,108.371693 C1637.74315,150.506508 1591.48705,149.911578 1591.48705,149.911578 C1587.08397,150.24015 1586.09253,148.023735 1589.00204,144.709939 C1589.00204,144.709939 1602.05493,135.09454 1602.05493,108.701027 Z" id="or" fill="#D2E9EA"></path>
            <path d="M1507.28385,232.640171 C1507.28385,232.640171 1512.12888,232.640171 1535.37448,232.640171 C1558.62007,232.640171 1558.62007,230.672868 1558.62007,183.227699 C1558.62007,135.782529 1560.01432,135.782529 1585.02715,135.782529 L1612.7448,135.782529" id="wire" stroke="#D2E9EA" stroke-width="3"></path>
            <path d="M1506.2595,110.782529 C1506.2595,110.782529 1505.41354,110.782529 1530.447,110.782529 C1555.48046,110.782529 1556.51731,109.782529 1556.51731,94.7825288 C1556.51731,79.7825288 1555.48546,78.7825288 1580.71653,78.7825288 L1604.70481,78.7825288" id="wire" stroke="#D2E9EA" stroke-width="3"></path>
            <path d="M1611.2595,108.782529 C1611.2595,108.782529 1642.3497,109.183742 1662.3046,109.183742 C1682.2595,109.183742 1682.2595,108.782529 1682.2595,89.2825288 L1682.2595,49 C1682.2595,29 1682.2595,29 1662.09815,29 C1643.45254,29 130.544659,29 103.429424,29 C76.3141899,29 77.7442033,29 77.7442033,59 C77.7442033,89 77.7442033,260.415255 77.7442033,280.415255 C77.7442033,300.415255 77.7442033,300.415255 104.755596,300.415255 C131.766989,300.415255 268.685962,300.415255 268.685962,300.415255" id="wire" stroke="#D2E9EA" stroke-width="3"></path>
            <path d="M1611.2595,108.782529 C1611.2595,108.782529 1642.3497,109.183742 1662.3046,109.183742 C1682.2595,109.183742 1682.2595,108.782529 1682.2595,89.2825288 L1682.2595,49 C1682.2595,29 1682.2595,29 1662.09815,29 C1643.45254,29 130.544659,29 103.429424,29 C76.3141899,29 77.7442033,29 77.7442033,59 C77.7442033,89 77.7442033,260.415255 77.7442033,280.415255 C77.7442033,300.415255 77.7442033,300.415255 104.755596,300.415255 C131.766989,300.415255 179.685962,300.415255 199.685962,300.415255 C219.685962,300.415255 219.685962,300.415255 219.685962,328.397763 L219.685962,439.089169 C219.685962,466.237424 219.685962,466.237424 239.685962,466.237424 L255.008504,466.237424" id="wire" stroke="#D2E9EA" stroke-width="3"></path>
            <path d="M1611.2595,386.782529 C1611.2595,386.782529 1657.3497,387.183742 1677.3046,387.183742 C1697.2595,387.183742 1697.2595,386.782529 1697.2595,367.282529 C1697.2595,347.782529 1697.2595,55 1697.2595,35 C1697.2595,15 1697.2595,15 1677.09815,15 C1658.45254,15 116.544659,15 89.4294242,15 C62.3141899,15 63.7442033,15 63.7442033,45 C63.7442033,75 63.7442033,217.415255 63.7442033,237.415255 C63.7442033,257.415255 63.7442033,257.415255 90.7555961,257.415255 C117.766989,257.415255 428.685962,257.415255 448.685962,257.415255 C468.685962,257.415255 468.685962,257.415255 468.685962,285.397763 L468.685962,442.089169 C468.685962,469.237424 468.685962,469.237424 488.685962,469.237424 L504.008504,469.237424" id="wire" stroke="#D2E9EA" stroke-width="3"></path>
            <path d="M1611.2595,386.782529 C1611.2595,386.782529 1657.3497,387.183742 1677.3046,387.183742 C1697.2595,387.183742 1697.2595,386.782529 1697.2595,367.282529 C1697.2595,347.782529 1697.2595,55 1697.2595,35 C1697.2595,15 1697.2595,15 1677.09815,15 C1658.45254,15 116.544659,15 89.4294242,15 C62.3141899,15 63.7442033,15 63.7442033,45 C63.7442033,75 63.7442033,217.415255 63.7442033,237.415255 C63.7442033,257.415255 63.7442033,257.415255 90.7555961,257.415255 C117.766989,257.415255 428.685962,257.415255 448.685962,257.415255 C468.685962,257.415255 468.685962,260.054493 468.685962,278.089169 C468.685962,296.123846 468.685962,298.237424 488.685962,298.237424 L505.008504,298.237424" id="wire" stroke="#D2E9EA" stroke-width="3"></path>
            <path d="M1611.2595,663.782529 C1611.2595,663.782529 1674.3497,664.183742 1694.3046,664.183742 C1714.2595,664.183742 1714.2595,663.782529 1714.2595,644.282529 C1714.2595,624.782529 1714.2595,40 1714.2595,20 C1714.2595,3.70019583e-13 1714.2595,1.98633532e-13 1694.09815,2.14866062e-14 C1675.45254,-1.40970087e-13 101.544659,6.70743297e-13 74.4294242,6.82121026e-13 C47.3141899,6.983955e-13 48.7442033,7.53981945e-13 48.7442033,30 C48.7442033,60 48.7442033,186.415255 48.7442033,206.415255 C48.7442033,226.415255 48.7442033,226.415255 75.7555961,226.415255 C102.766989,226.415255 742.685962,226.415255 772.685962,226.415255 C802.685962,226.415255 802.685962,226.415255 802.685962,259.089169 C802.685962,291.763084 802.685962,299.237424 822.685962,299.237424 L839.008504,299.237424" id="wire" stroke="#D2E9EA" stroke-width="3"></path>
            <path d="M1618.26997,108.782529 L1638.08879,108.782529 C1657.11432,108.782529 1657.11432,100.731334 1657.11432,93.6419038 C1657.11432,77.6419038 1657.11432,83.8606315 1657.11432,70.3215801 C1657.11432,56.7825288 1657.11432,56.7825288 1639.62175,56.7825288 C1622.12918,56.7825288 1505.03825,56.7825288 1479.14888,56.7825288 C1453.2595,56.7825288 1453.2595,56.7825288 1453.2595,68.5110444 C1453.2595,80.23956 1453.2595,80.8443854 1462.29341,80.8443854 C1471.32731,80.8443854 1492.10994,80.8443854 1492.10994,80.8443854" id="wire" stroke="#D2E9EA" stroke-width="3"></path>
            <path d="M1247.2595,353.228409 C1247.2595,348.808001 1250.83856,345.386796 1255.23198,345.819485 C1255.23198,345.819485 1301.48808,345.224553 1301.48808,387.35937 C1301.48808,429.494185 1255.23198,428.899254 1255.23198,428.899254 C1250.8289,429.227826 1247.2595,425.913628 1247.2595,421.490331 L1247.2595,353.228409 Z" id="and" fill="#D2E9EA"></path>
            <path d="M1247.2595,476.228409 C1247.2595,471.808001 1250.83856,468.386796 1255.23198,468.819485 C1255.23198,468.819485 1301.48808,468.224553 1301.48808,510.35937 C1301.48808,552.494185 1255.23198,551.899254 1255.23198,551.899254 C1250.8289,552.227826 1247.2595,548.913628 1247.2595,544.490331 L1247.2595,476.228409 Z" id="and" fill="#D2E9EA"></path>
            <path d="M1368.05493,386.701027 C1368.05493,360.307514 1354.91458,350.117778 1354.91458,350.117778 C1351.93224,346.869846 1353.09363,344.39912 1357.48705,344.831808 C1357.48705,344.831808 1403.74315,344.236877 1403.74315,386.371693 C1403.74315,428.506508 1357.48705,427.911578 1357.48705,427.911578 C1353.08397,428.24015 1352.09253,426.023735 1355.00204,422.709939 C1355.00204,422.709939 1368.05493,413.09454 1368.05493,386.701027 Z" id="or" fill="#D2E9EA"></path>
            <path d="M1273.28385,510.640171 C1273.28385,510.640171 1278.12888,510.640171 1301.37448,510.640171 C1324.62007,510.640171 1324.62007,508.672868 1324.62007,461.227699 C1324.62007,413.782529 1326.01432,413.782529 1351.02715,413.782529 L1378.7448,413.782529" id="wire" stroke="#D2E9EA" stroke-width="3"></path>
            <path d="M1272.2595,388.782529 C1272.2595,388.782529 1271.41354,388.782529 1296.447,388.782529 C1321.48046,388.782529 1322.51731,387.782529 1322.51731,372.782529 C1322.51731,357.782529 1321.48546,356.782529 1346.71653,356.782529 L1370.70481,356.782529" id="wire" stroke="#D2E9EA" stroke-width="3"></path>
            <path d="M1193.89974,479.08959 C1193.53403,478.499702 1193.05082,477.94631 1192.45014,477.452859 L1162.81889,453.110866 C1159.74726,450.587525 1157.2595,451.765969 1157.2595,455.740665 L1157.2595,508.299103 C1157.2595,512.266689 1159.74853,513.451201 1162.81889,510.928902 L1192.45014,486.58691 C1193.03219,486.108763 1193.50389,485.574421 1193.86529,485.005188 C1194.98023,487.48201 1197.4699,489.206402 1200.36231,489.206402 C1204.29532,489.206402 1207.48365,486.018072 1207.48365,482.085068 C1207.48365,478.152064 1204.29532,474.963734 1200.36231,474.963734 C1197.49932,474.963734 1195.03093,476.653219 1193.89974,479.08959 Z" id="not" fill="#D2E9EA"></path>
            <path d="M1162.81889,441.928902 C1159.74853,444.451201 1157.2595,443.266689 1157.2595,439.299103 L1157.2595,386.740665 C1157.2595,382.765969 1159.74726,381.587525 1162.81889,384.110866 L1192.45014,408.452859 C1195.52051,410.975157 1195.52178,415.063568 1192.45014,417.58691 L1162.81889,441.928902 Z" id="buffer" fill="#D2E9EA"></path>
            <path d="M1377.2595,386.782529 C1377.2595,386.782529 1381.13513,386.012478 1403.66118,386.429241 C1422.75641,386.782529 1422.75641,386.782529 1422.75641,403.888197 L1422.75641,508.530576 C1422.75641,536.282529 1424.18919,536.282529 1456.92747,536.282529 C1489.66575,536.282529 1503.2595,536.282529 1503.2595,536.282529" id="wire" stroke="#D2E9EA" stroke-width="3"></path>
            <path d="M1180.2595,412.782529 L1259.2595,412.782529" id="wire" stroke="#D2E9EA" stroke-width="3"></path>
            <path d="M1174.2595,412.782529 C1174.2595,412.782529 1198.36666,412.782529 1212.81308,412.782529 C1227.2595,412.782529 1227.2595,412.782529 1227.2595,433.591123 C1227.2595,454.399716 1227.2595,454.464169 1246.2595,454.464169 C1253.69667,454.464169 1416.77274,454.464169 1435.13646,454.464169 C1453.50017,454.464169 1453.50017,456.464169 1453.50017,469.973935 C1453.50017,483.483701 1453.50017,482.819623 1472.56224,482.819623 C1491.6243,482.819623 1498.84084,482.819623 1498.84084,482.819623" id="wire" stroke="#D2E9EA" stroke-width="3"></path>
            <path d="M1180.2595,482.782529 C1212.2595,482.782529 1212.2595,480.718076 1212.2595,461.591123 C1212.2595,442.464169 1212.2595,442.464169 1241.2595,442.464169 C1270.2595,442.464169 1417.01341,442.464169 1435.13646,442.464169 C1453.2595,442.464169 1453.50017,443.128247 1453.50017,427.973935 C1453.50017,412.819623 1453.15208,412.856717 1467.56224,412.819623 C1481.97239,412.782529 1498.84084,412.819623 1498.84084,412.819623" id="wire" stroke="#D2E9EA" stroke-width="3"></path>
            <path d="M1384.26997,386.782529 C1384.26997,386.782529 1385.06326,386.782529 1404.08879,386.782529 C1423.11432,386.782529 1423.11432,386.782529 1423.11432,369.641904 C1423.11432,352.501279 1423.11432,359.860632 1423.11432,346.32158 C1423.11432,332.782529 1423.11432,332.782529 1405.62175,332.782529 C1388.12918,332.782529 1271.03825,332.782529 1245.14888,332.782529 C1219.2595,332.782529 1219.2595,332.782529 1219.2595,344.511044 C1219.2595,356.23956 1219.2595,356.844385 1228.29341,356.844385 C1237.32731,356.844385 1258.10994,356.844385 1258.10994,356.844385" id="wire" stroke="#D2E9EA" stroke-width="3"></path>
            <path d="M1181.39036,483.032529 L1256.49424,483.032529" id="wire" stroke="#D2E9EA" stroke-width="3"></path>
            <path d="M1481.2595,353.228409 C1481.2595,348.808001 1484.83856,345.386796 1489.23198,345.819485 C1489.23198,345.819485 1535.48808,345.224553 1535.48808,387.35937 C1535.48808,429.494185 1489.23198,428.899254 1489.23198,428.899254 C1484.8289,429.227826 1481.2595,425.913628 1481.2595,421.490331 L1481.2595,353.228409 Z" id="and" fill="#D2E9EA"></path>
            <path d="M1481.2595,476.228409 C1481.2595,471.808001 1484.83856,468.386796 1489.23198,468.819485 C1489.23198,468.819485 1535.48808,468.224553 1535.48808,510.35937 C1535.48808,552.494185 1489.23198,551.899254 1489.23198,551.899254 C1484.8289,552.227826 1481.2595,548.913628 1481.2595,544.490331 L1481.2595,476.228409 Z" id="and" fill="#D2E9EA"></path>
            <path d="M1602.05493,386.701027 C1602.05493,360.307514 1588.91458,350.117778 1588.91458,350.117778 C1585.93224,346.869846 1587.09363,344.39912 1591.48705,344.831808 C1591.48705,344.831808 1637.74315,344.236877 1637.74315,386.371693 C1637.74315,428.506508 1591.48705,427.911578 1591.48705,427.911578 C1587.08397,428.24015 1586.09253,426.023735 1589.00204,422.709939 C1589.00204,422.709939 1602.05493,413.09454 1602.05493,386.701027 Z" id="or" fill="#D2E9EA"></path>
            <path d="M1507.28385,510.640171 C1507.28385,510.640171 1512.12888,510.640171 1535.37448,510.640171 C1558.62007,510.640171 1558.62007,508.672868 1558.62007,461.227699 C1558.62007,413.782529 1560.01432,413.782529 1585.02715,413.782529 L1612.7448,413.782529" id="wire" stroke="#D2E9EA" stroke-width="3"></path>
            <path d="M1506.2595,388.782529 C1506.2595,388.782529 1505.41354,388.782529 1530.447,388.782529 C1555.48046,388.782529 1556.51731,387.782529 1556.51731,372.782529 C1556.51731,357.782529 1555.48546,356.782529 1580.71653,356.782529 L1604.70481,356.782529" id="wire" stroke="#D2E9EA" stroke-width="3"></path>
            <path d="M1618.26997,386.782529 L1638.08879,386.782529 C1657.11432,386.782529 1657.11432,378.731334 1657.11432,371.641904 C1657.11432,355.641904 1657.11432,361.860632 1657.11432,348.32158 C1657.11432,334.782529 1657.11432,334.782529 1639.62175,334.782529 C1622.12918,334.782529 1505.03825,334.782529 1479.14888,334.782529 C1453.2595,334.782529 1453.2595,334.782529 1453.2595,346.511044 C1453.2595,358.23956 1453.2595,358.844385 1462.29341,358.844385 C1471.32731,358.844385 1492.10994,358.844385 1492.10994,358.844385" id="wire" stroke="#D2E9EA" stroke-width="3"></path>
            <path d="M1247.2595,630.228409 C1247.2595,625.808001 1250.83856,622.386796 1255.23198,622.819485 C1255.23198,622.819485 1301.48808,622.224553 1301.48808,664.35937 C1301.48808,706.494185 1255.23198,705.899254 1255.23198,705.899254 C1250.8289,706.227826 1247.2595,702.913628 1247.2595,698.490331 L1247.2595,630.228409 Z" id="and" fill="#D2E9EA"></path>
            <path d="M1247.2595,753.228409 C1247.2595,748.808001 1250.83856,745.386796 1255.23198,745.819485 C1255.23198,745.819485 1301.48808,745.224553 1301.48808,787.35937 C1301.48808,829.494185 1255.23198,828.899254 1255.23198,828.899254 C1250.8289,829.227826 1247.2595,825.913628 1247.2595,821.490331 L1247.2595,753.228409 Z" id="and" fill="#D2E9EA"></path>
            <path d="M1368.05493,663.701027 C1368.05493,637.307514 1354.91458,627.117778 1354.91458,627.117778 C1351.93224,623.869846 1353.09363,621.39912 1357.48705,621.831808 C1357.48705,621.831808 1403.74315,621.236877 1403.74315,663.371693 C1403.74315,705.506508 1357.48705,704.911578 1357.48705,704.911578 C1353.08397,705.24015 1352.09253,703.023735 1355.00204,699.709939 C1355.00204,699.709939 1368.05493,690.09454 1368.05493,663.701027 Z" id="or" fill="#D2E9EA"></path>
            <path d="M1273.28385,787.640171 C1273.28385,787.640171 1278.12888,787.640171 1301.37448,787.640171 C1324.62007,787.640171 1324.62007,785.672868 1324.62007,738.227699 C1324.62007,690.782529 1326.01432,690.782529 1351.02715,690.782529 L1378.7448,690.782529" id="wire" stroke="#D2E9EA" stroke-width="3"></path>
            <path d="M1272.2595,665.782529 C1272.2595,665.782529 1271.41354,665.782529 1296.447,665.782529 C1321.48046,665.782529 1322.51731,664.782529 1322.51731,649.782529 C1322.51731,634.782529 1321.48546,633.782529 1346.71653,633.782529 L1370.70481,633.782529" id="wire" stroke="#D2E9EA" stroke-width="3"></path>
            <path d="M1193.89974,756.08959 C1193.53403,755.499702 1193.05082,754.94631 1192.45014,754.452859 L1162.81889,730.110866 C1159.74726,727.587525 1157.2595,728.765969 1157.2595,732.740665 L1157.2595,785.299103 C1157.2595,789.266689 1159.74853,790.451201 1162.81889,787.928902 L1192.45014,763.58691 C1193.03219,763.108763 1193.50389,762.574421 1193.86529,762.005188 C1194.98023,764.48201 1197.4699,766.206402 1200.36231,766.206402 C1204.29532,766.206402 1207.48365,763.018072 1207.48365,759.085068 C1207.48365,755.152064 1204.29532,751.963734 1200.36231,751.963734 C1197.49932,751.963734 1195.03093,753.653219 1193.89974,756.08959 Z" id="not" fill="#D2E9EA"></path>
            <path d="M1162.81889,718.928902 C1159.74853,721.451201 1157.2595,720.266689 1157.2595,716.299103 L1157.2595,663.740665 C1157.2595,659.765969 1159.74726,658.587525 1162.81889,661.110866 L1192.45014,685.452859 C1195.52051,687.975157 1195.52178,692.063568 1192.45014,694.58691 L1162.81889,718.928902 Z" id="buffer" fill="#D2E9EA"></path>
            <path d="M1377.2595,663.782529 C1377.2595,663.782529 1381.13513,663.012478 1403.66118,663.429241 C1422.75641,663.782529 1422.75641,663.782529 1422.75641,680.888197 L1422.75641,785.530576 C1422.75641,813.282529 1424.18919,813.282529 1456.92747,813.282529 C1489.66575,813.282529 1503.2595,813.282529 1503.2595,813.282529" id="wire" stroke="#D2E9EA" stroke-width="3"></path>
            <path d="M1180.2595,689.782529 L1259.2595,689.782529" id="wire" stroke="#D2E9EA" stroke-width="3"></path>
            <path d="M1174.2595,689.782529 C1174.2595,689.782529 1198.36666,689.782529 1212.81308,689.782529 C1227.2595,689.782529 1227.2595,689.782529 1227.2595,710.591123 C1227.2595,731.399716 1227.2595,731.464169 1246.2595,731.464169 C1253.69667,731.464169 1416.77274,731.464169 1435.13646,731.464169 C1453.50017,731.464169 1453.50017,733.464169 1453.50017,746.973935 C1453.50017,760.483701 1453.50017,759.819623 1472.56224,759.819623 C1491.6243,759.819623 1498.84084,759.819623 1498.84084,759.819623" id="wire" stroke="#D2E9EA" stroke-width="3"></path>
            <path d="M1180.2595,759.782529 C1212.2595,759.782529 1212.2595,757.718076 1212.2595,738.591123 C1212.2595,719.464169 1212.2595,719.464169 1241.2595,719.464169 C1270.2595,719.464169 1417.01341,719.464169 1435.13646,719.464169 C1453.2595,719.464169 1453.50017,720.128247 1453.50017,704.973935 C1453.50017,689.819623 1453.15208,689.856717 1467.56224,689.819623 C1481.97239,689.782529 1498.84084,689.819623 1498.84084,689.819623" id="wire" stroke="#D2E9EA" stroke-width="3"></path>
            <path d="M1384.26997,663.782529 C1384.26997,663.782529 1385.06326,663.782529 1404.08879,663.782529 C1423.11432,663.782529 1423.11432,663.782529 1423.11432,646.641904 C1423.11432,629.501279 1423.11432,636.860632 1423.11432,623.32158 C1423.11432,609.782529 1423.11432,609.782529 1405.62175,609.782529 C1388.12918,609.782529 1271.03825,609.782529 1245.14888,609.782529 C1219.2595,609.782529 1219.2595,609.782529 1219.2595,621.511044 C1219.2595,633.23956 1219.2595,633.844385 1228.29341,633.844385 C1237.32731,633.844385 1258.10994,633.844385 1258.10994,633.844385" id="wire" stroke="#D2E9EA" stroke-width="3"></path>
            <path d="M1181.39036,760.032529 L1256.49424,760.032529" id="wire" stroke="#D2E9EA" stroke-width="3"></path>
            <path d="M1481.2595,630.228409 C1481.2595,625.808001 1484.83856,622.386796 1489.23198,622.819485 C1489.23198,622.819485 1535.48808,622.224553 1535.48808,664.35937 C1535.48808,706.494185 1489.23198,705.899254 1489.23198,705.899254 C1484.8289,706.227826 1481.2595,702.913628 1481.2595,698.490331 L1481.2595,630.228409 Z" id="and" fill="#D2E9EA"></path>
            <path d="M1481.2595,753.228409 C1481.2595,748.808001 1484.83856,745.386796 1489.23198,745.819485 C1489.23198,745.819485 1535.48808,745.224553 1535.48808,787.35937 C1535.48808,829.494185 1489.23198,828.899254 1489.23198,828.899254 C1484.8289,829.227826 1481.2595,825.913628 1481.2595,821.490331 L1481.2595,753.228409 Z" id="and" fill="#D2E9EA"></path>
            <path d="M1602.05493,663.701027 C1602.05493,637.307514 1588.91458,627.117778 1588.91458,627.117778 C1585.93224,623.869846 1587.09363,621.39912 1591.48705,621.831808 C1591.48705,621.831808 1637.74315,621.236877 1637.74315,663.371693 C1637.74315,705.506508 1591.48705,704.911578 1591.48705,704.911578 C1587.08397,705.24015 1586.09253,703.023735 1589.00204,699.709939 C1589.00204,699.709939 1602.05493,690.09454 1602.05493,663.701027 Z" id="or" fill="#D2E9EA"></path>
            <path d="M1507.28385,787.640171 C1507.28385,787.640171 1512.12888,787.640171 1535.37448,787.640171 C1558.62007,787.640171 1558.62007,785.672868 1558.62007,738.227699 C1558.62007,690.782529 1560.01432,690.782529 1585.02715,690.782529 L1612.7448,690.782529" id="wire" stroke="#D2E9EA" stroke-width="3"></path>
            <path d="M1506.2595,665.782529 C1506.2595,665.782529 1505.41354,665.782529 1530.447,665.782529 C1555.48046,665.782529 1556.51731,664.782529 1556.51731,649.782529 C1556.51731,634.782529 1555.48546,633.782529 1580.71653,633.782529 L1604.70481,633.782529" id="wire" stroke="#D2E9EA" stroke-width="3"></path>
            <path d="M1618.26997,663.782529 L1638.08879,663.782529 C1657.11432,663.782529 1657.11432,655.731334 1657.11432,648.641904 C1657.11432,632.641904 1657.11432,638.860632 1657.11432,625.32158 C1657.11432,611.782529 1657.11432,611.782529 1639.62175,611.782529 C1622.12918,611.782529 1505.03825,611.782529 1479.14888,611.782529 C1453.2595,611.782529 1453.2595,611.782529 1453.2595,623.511044 C1453.2595,635.23956 1453.2595,635.844385 1462.29341,635.844385 C1471.32731,635.844385 1492.10994,635.844385 1492.10994,635.844385" id="wire" stroke="#D2E9EA" stroke-width="3"></path>
            <path d="M85.1618461,759.204404 L1169.77567,759.204404" id="wire" stroke="#D2E9EA" stroke-width="3"></path>
            <path d="M85.1618461,759.204404 C85.1618461,759.204404 1031.62778,759.204404 1069.77567,759.204404 C1107.92356,759.204404 1106.92356,758.391904 1106.92356,723.231748 C1106.92356,688.071591 1107.92356,688.071591 1136.92747,688.071591 L1170.94071,688.071591" id="wire" stroke="#D2E9EA" stroke-width="3"></path>
            <path d="M85.1618461,759.204404 C85.1618461,759.204404 1031.62778,759.204404 1069.77567,759.204404 C1107.92356,759.204404 1106.92356,759.204404 1106.92356,723.231748 C1106.92356,687.259091 1107.58763,551.875657 1106.92356,516.973624 C1106.2595,482.071591 1106.92356,482.071591 1136.92747,482.071591 L1170.94071,482.071591" id="wire" stroke="#D2E9EA" stroke-width="3"></path>
            <path d="M85.1618461,759.204404 C85.1618461,759.204404 1031.62778,759.204404 1069.77567,759.204404 C1107.92356,759.204404 1106.92356,759.204404 1106.92356,723.231748 C1106.92356,687.259091 1107.58763,480.875657 1106.92356,445.973624 C1106.2595,411.071591 1106.92356,412.071591 1136.92747,412.071591 L1170.94071,412.071591" id="wire" stroke="#D2E9EA" stroke-width="3"></path>
            <path d="M85.1618461,759.204404 L1069.77567,759.204404 C1107.92356,759.204404 1106.92356,759.204404 1106.92356,723.231748 C1106.92356,687.259091 1107.58763,272.875657 1106.92356,237.973624 C1106.2595,203.071591 1106.92356,204.071591 1136.92747,204.071591 L1170.94071,204.071591" id="wire" stroke="#D2E9EA" stroke-width="3"></path>
            <path d="M16.1618461,759.204404 C16.1618461,759.204404 1031.62778,759.204404 1069.77567,759.204404 C1107.92356,759.204404 1106.92356,759.204404 1106.92356,723.231748 C1106.92356,687.259091 1107.58763,203.875657 1106.92356,168.973624 C1106.2595,134.071591 1106.92356,135.071591 1136.92747,135.071591 L1170.94071,135.071591" id="wire" stroke="#D2E9EA" stroke-width="3"></path>
            <path d="M1802.5135,523.041934 C1810.79473,523.041934 1817.50799,516.326205 1817.50799,508.041934 C1817.50799,499.757663 1810.79473,493.041934 1802.5135,493.041934 C1794.23227,493.041934 1787.519,499.757663 1787.519,508.041934 C1787.519,516.326205 1794.23227,523.041934 1802.5135,523.041934 Z" id="led" fill="#D2E9EA" transform="translate(1802.513500, 508.041934) rotate(1.000000) translate(-1802.513500, -508.041934) "></path>
            <path d="M1802.5135,559.041934 C1810.79473,559.041934 1817.50799,552.326205 1817.50799,544.041934 C1817.50799,535.757663 1810.79473,529.041934 1802.5135,529.041934 C1794.23227,529.041934 1787.519,535.757663 1787.519,544.041934 C1787.519,552.326205 1794.23227,559.041934 1802.5135,559.041934 Z" id="led" fill="#D2E9EA" transform="translate(1802.513500, 544.041934) rotate(1.000000) translate(-1802.513500, -544.041934) "></path>
            <path d="M1802.5135,598.041934 C1810.79473,598.041934 1817.50799,591.326205 1817.50799,583.041934 C1817.50799,574.757663 1810.79473,568.041934 1802.5135,568.041934 C1794.23227,568.041934 1787.519,574.757663 1787.519,583.041934 C1787.519,591.326205 1794.23227,598.041934 1802.5135,598.041934 Z" id="led" fill="#D2E9EA" transform="translate(1802.513500, 583.041934) rotate(1.000000) translate(-1802.513500, -583.041934) "></path>
            <path d="M1620.40208,663.919248 C1620.40208,663.919248 1710.74216,663.919248 1730.74216,663.919248 C1750.74216,663.919248 1750.74216,663.919248 1750.74216,639.413388 C1750.74216,614.907529 1750.74216,627.255736 1750.74216,605.302768 C1750.74216,583.3498 1750.74216,583.3498 1772.69513,583.3498 L1802.96776,583.3498" id="wire" stroke="#D2E9EA" stroke-width="3"></path>
            <path d="M1620.40208,386.919248 C1620.40208,386.919248 1710.74216,386.919248 1730.74216,386.919248 C1750.74216,386.919248 1750.74216,386.919248 1750.74216,412.413388 L1750.74216,526.302768 C1750.74216,544.3498 1750.74216,544.3498 1772.69513,544.3498 L1802.96776,544.3498" id="wire" stroke="#D2E9EA" stroke-width="3"></path>
            <path d="M1620.40208,108.919248 C1620.40208,108.919248 1727.74216,108.919248 1747.74216,108.919248 C1767.74216,108.919248 1767.74216,108.919248 1767.74216,134.413388 L1767.74216,490.302768 C1767.74216,508.3498 1767.74216,508.3498 1789.69513,508.3498 C1811.6481,508.3498 1802.96776,508.3498 1802.96776,508.3498" id="wire" stroke="#D2E9EA" stroke-width="3"></path>
        </g>
    </g>
</svg>