<?xml version="1.0" encoding="UTF-8" standalone="no"?>
<svg width="458px" height="356px" viewBox="0 0 458 356" version="1.1" xmlns="http://www.w3.org/2000/svg" xmlns:xlink="http://www.w3.org/1999/xlink">
    <!-- Generator: Sketch 42 (36781) - http://www.bohemiancoding.com/sketch -->
    <title>Group</title>
    <desc>Created with Sketch.</desc>
    <defs></defs>
    <g id="Page-1" stroke="none" stroke-width="1" fill="none" fill-rule="evenodd">
        <g id="Group">
            <path d="M13,28.0095459 C20.1797017,28.0095459 26,22.1871107 26,15.0047729 C26,7.82243517 20.1797017,2 13,2 C5.82029825,2 0,7.82243517 0,15.0047729 C0,22.1871107 5.82029825,28.0095459 13,28.0095459 Z" id="switch" fill="#D2E9EA"></path>
            <path d="M13,81.0095459 C20.1797017,81.0095459 26,75.1871107 26,68.0047729 C26,60.8224352 20.1797017,55 13,55 C5.82029825,55 0,60.8224352 0,68.0047729 C0,75.1871107 5.82029825,81.0095459 13,81.0095459 Z" id="switch" fill="#D2E9EA"></path>
            <path d="M445,195.009546 C452.179702,195.009546 458,189.187111 458,182.004773 C458,174.822435 452.179702,169 445,169 C437.820298,169 432,174.822435 432,182.004773 C432,189.187111 437.820298,195.009546 445,195.009546 Z" id="led" fill="#D2E9EA"></path>
            <path d="M13,134.009546 C20.1797017,134.009546 26,128.187111 26,121.004773 C26,113.822435 20.1797017,108 13,108 C5.82029825,108 0,113.822435 0,121.004773 C0,128.187111 5.82029825,134.009546 13,134.009546 Z" id="switch" fill="#D2E9EA"></path>
            <path d="M118,179.44588 C118,175.025473 121.57906,171.604268 125.972475,172.036956 C125.972475,172.036956 172.228578,171.442025 172.228578,213.576841 C172.228578,255.711656 125.972475,255.116726 125.972475,255.116726 C121.569399,255.445297 118,252.131099 118,247.707802 L118,179.44588 Z" id="and" fill="#D2E9EA"></path>
            <path d="M118,279.44588 C118,275.025473 121.57906,271.604268 125.972475,272.036956 C125.972475,272.036956 172.228578,271.442025 172.228578,313.576841 C172.228578,355.711656 125.972475,355.116726 125.972475,355.116726 C121.569399,355.445297 118,352.131099 118,347.707802 L118,279.44588 Z" id="and" fill="#D2E9EA"></path>
            <path d="M117,7.44587977 C117,3.02547257 120.57906,-0.395732347 124.972475,0.036955848 C124.972475,0.036955848 171.228578,-0.557975493 171.228578,41.5768408 C171.228578,83.711656 124.972475,83.1167256 124.972475,83.1167256 C120.569399,83.4452971 117,80.1310988 117,75.7078018 L117,7.44587977 Z" id="and" fill="#D2E9EA"></path>
            <path d="M144.024345,315.857642 C144.024345,315.857642 245.229949,315.857642 272.114975,315.857642 C299,315.857642 299,315.857642 299.114975,292.482407 C299.163193,282.679231 299.29812,230.704567 299.29812,224.216408 C299.29812,209 305.986516,209 322.4853,209" id="wire" stroke="#D2E9EA" stroke-width="3"></path>
            <path d="M171,40 C177.887981,40 173.19742,40.3455504 187.348548,40.3455503 C201.499676,40.3455503 201.499676,40.3455504 201.499676,67.8398438 C201.499676,95.3341371 201.499676,96.0894547 219.737805,96.0894547" id="wire" stroke="#D2E9EA" stroke-width="3"></path>
            <path d="M162,213.67249 C195.242188,213.67249 201.242188,214.085938 201.242188,184.542969 C201.242188,155 201.242188,154 220.082031,154" id="wire" stroke="#D2E9EA" stroke-width="3"></path>
            <path d="M248,126.67249 C248,126.67249 240.632812,126.672489 277.449219,126.672489 C299.374003,126.672489 299,127.67249 299.374003,141.276034 C299.748005,154.879578 299.374003,155 321.082031,155" id="wire" stroke="#D2E9EA" stroke-width="3"></path>
            <path d="M14,15.3992816 C14,15.3992816 41.6028778,14.9999973 62.7191482,15 C83.8354187,15.0000027 83.8354197,15 83.8354197,42.9258327 C83.8354197,70.8516655 83.8744726,105.985491 83.8354187,138.707612 C83.813566,157.017344 83.8354206,246.054637 83.8354197,265.242187 C83.8354191,277.434109 83.8354197,284.429738 108.511719,284.429738 C115.874572,284.429738 123.223505,284.429738 129.610785,284.429738" id="wire" stroke="#D2E9EA" stroke-width="3"></path>
            <path d="M15,68 C29.9663177,68 15.7780216,68 38.5039062,68 C61.2297909,68 61.2297909,68 61.2297909,91.5965186 C61.2297909,115.193037 61.7221146,109.454048 61.7221146,128.292175 C61.7221146,143.084061 62.2390426,141.271895 62.2390426,162.635947 C62.2390426,184 62.2390426,184.616497 86.2758,184.616497 C110.312557,184.616497 124.805114,185.030457 130.610785,185.030457" id="wire" stroke="#D2E9EA" stroke-width="3"></path>
            <path d="M14,15 L130.952783,15" id="wire" stroke="#D2E9EA" stroke-width="3"></path>
            <path d="M14,68 L130.952783,68" id="wire" stroke="#D2E9EA" stroke-width="3"></path>
            <path d="M15,121.580078 C40.5390644,121.580078 40.5390644,126.128742 40.5390642,138.589428 C40.539064,147.665167 40.5390644,278.070312 40.5390644,309.035156 C40.5390644,340 40.5390644,340 76.2167969,340 L139.752382,340" id="wire" stroke="#D2E9EA" stroke-width="3"></path>
            <path d="M15,121.580078 C40.5390644,121.580078 40.5390644,126.128742 40.5390642,138.589428 C40.539064,147.665167 40.5390644,183.070312 40.5390644,214.035156 C40.5390644,245 40.5390644,245 76.2167969,245 L139.752382,245" id="wire" stroke="#D2E9EA" stroke-width="3"></path>
            <path d="M355.546875,182.691406 L443.091797,182.691406" id="wire" stroke="#D2E9EA" stroke-width="3"></path>
            <path d="M239.187877,124.918498 C239.187878,98.5249857 226.047526,88.3352493 226.047526,88.3352493 C223.065183,85.0873173 224.226577,82.6165914 228.619992,83.0492795 C228.619992,83.0492795 274.876095,82.4543482 274.876095,124.589164 C274.876095,166.72398 228.619992,166.129049 228.619992,166.129049 C224.216916,166.457621 223.225474,164.241206 226.134983,160.92741 C226.134983,160.92741 239.187876,151.312011 239.187877,124.918498 Z M212.02927,163.028811 C209.541981,160.526116 224.900105,149.709435 224.900101,124.605479 C224.900098,99.5015231 207.349456,88.5748726 210.343783,85.9015232 C213.338111,83.2281738 232.274047,92.7815263 232.274047,124.605479 C232.274047,156.429432 214.51656,165.531505 212.02927,163.028811 Z" id="xor" fill="#D2E9EA"></path>
            <path d="M339.187877,182.918498 C339.187878,156.524986 326.047526,146.335249 326.047526,146.335249 C323.065183,143.087317 324.226577,140.616591 328.619992,141.04928 C328.619992,141.04928 374.876095,140.454348 374.876095,182.589164 C374.876095,224.72398 328.619992,224.129049 328.619992,224.129049 C324.216916,224.457621 323.225474,222.241206 326.134983,218.92741 C326.134983,218.92741 339.187876,209.312011 339.187877,182.918498 Z M312.02927,221.028811 C309.541981,218.526116 324.900105,207.709435 324.900101,182.605479 C324.900098,157.501523 307.349456,146.574873 310.343783,143.901523 C313.338111,141.228174 332.274047,150.781526 332.274047,182.605479 C332.274047,214.429432 314.51656,223.531505 312.02927,221.028811 Z" id="xor" fill="#D2E9EA"></path>
        </g>
    </g>
</svg>