<?xml version="1.0" encoding="UTF-8" standalone="no"?>
<svg width="441px" height="222px" viewBox="0 0 441 222" version="1.1" xmlns="http://www.w3.org/2000/svg" xmlns:xlink="http://www.w3.org/1999/xlink">
    <!-- Generator: Sketch 40.3 (33839) - http://www.bohemiancoding.com/sketch -->
    <title>Group</title>
    <desc>Created with Sketch.</desc>
    <defs></defs>
    <g id="Page-1" stroke="none" stroke-width="1" fill="none" fill-rule="evenodd">
        <g id="Group" transform="translate(0.000000, 2.000000)">
            <path d="M13,217.009546 C20.1797017,217.009546 26,211.187111 26,204.004773 C26,196.822435 20.1797017,191 13,191 C5.82029825,191 0,196.822435 0,204.004773 C0,211.187111 5.82029825,217.009546 13,217.009546 Z" id="switch" fill="#D2E9EA"></path>
            <path d="M428,99.0095459 C435.179702,99.0095459 441,93.1871107 441,86.0047729 C441,78.8224352 435.179702,73 428,73 C420.820298,73 415,78.8224352 415,86.0047729 C415,93.1871107 420.820298,99.0095459 428,99.0095459 Z" id="led" fill="#D2E9EA"></path>
            <path d="M13,91.0095459 C20.1797017,91.0095459 26,85.1871107 26,78.0047729 C26,70.8224352 20.1797017,65 13,65 C5.82029825,65 0,70.8224352 0,78.0047729 C0,85.1871107 5.82029825,91.0095459 13,91.0095459 Z" id="switch" fill="#D2E9EA"></path>
            <path d="M196,20.4458798 C196,16.0254726 199.57906,12.6042677 203.972475,13.0369558 C203.972475,13.0369558 250.228578,12.4420245 250.228578,54.5768408 C250.228578,96.711656 203.972475,96.1167256 203.972475,96.1167256 C199.569399,96.4452971 196,93.1310988 196,88.7078018 L196,20.4458798 Z" id="and" fill="#D2E9EA"></path>
            <path d="M196,143.44588 C196,139.025473 199.57906,135.604268 203.972475,136.036956 C203.972475,136.036956 250.228578,135.442025 250.228578,177.576841 C250.228578,219.711656 203.972475,219.116726 203.972475,219.116726 C199.569399,219.445297 196,216.131099 196,211.707802 L196,143.44588 Z" id="and" fill="#D2E9EA"></path>
            <path d="M306.795428,83.9184984 C306.795429,57.5249857 293.655077,47.3352493 293.655077,47.3352493 C290.672734,44.0873173 291.834128,41.6165914 296.227543,42.0492795 C296.227543,42.0492795 342.483646,41.4543482 342.483646,83.5891645 C342.483646,125.72398 296.227543,125.129049 296.227543,125.129049 C291.824466,125.457621 290.833025,123.241206 293.742534,119.92741 C293.742534,119.92741 306.795427,110.312011 306.795428,83.9184984 Z" id="or" fill="#D2E9EA"></path>
            <path d="M222.024345,177.857642 L250.114975,177.857642 C271.458984,177.857642 271.458984,176.857642 271.458984,144.428821 C271.458984,112 271.458984,112 299.767647,112 L313.4853,112" id="wire" stroke="#D2E9EA" stroke-width="3"></path>
            <path d="M221,56 L310.445312,56" id="wire" stroke="#D2E9EA" stroke-width="3"></path>
            <path d="M142.640239,76.3070609 C142.274523,75.7171737 141.791314,75.1637816 141.190641,74.6703299 L111.559392,50.3283374 C108.487755,47.8049959 106,48.9834399 106,52.9581362 L106,105.516575 C106,109.48416 108.489024,110.668672 111.559392,108.146373 L141.190641,83.8043808 C141.772683,83.3262346 142.244389,82.7918927 142.605785,82.2226591 C143.720732,84.6994815 146.210395,86.4238735 149.102812,86.4238735 C153.035816,86.4238735 156.224146,83.2355437 156.224146,79.3025395 C156.224146,75.3695352 153.035816,72.1812054 149.102812,72.1812054 C146.239821,72.1812054 143.771431,73.8706898 142.640239,76.3070609 Z" id="not" fill="#D2E9EA"></path>
            <path d="M111.559392,179.146373 C108.489024,181.668672 106,180.48416 106,176.516575 L106,123.958136 C106,119.98344 108.487755,118.804996 111.559392,121.328337 L141.190641,145.67033 C144.261008,148.192628 144.262278,152.281039 141.190641,154.804381 L111.559392,179.146373 Z" id="buffer" fill="#D2E9EA"></path>
            <path d="M326,86 L428,86.5" id="wire" stroke="#D2E9EA" stroke-width="3"></path>
            <path d="M149,80 L208,80" id="wire" stroke="#D2E9EA" stroke-width="3"></path>
            <path d="M326.010467,86 L352.829291,86 C371.854822,86 371.854822,75.948805 371.854822,68.859375 C371.854822,52.859375 371.854822,27.0781028 371.854822,13.5390514 C371.854822,1.22334696e-13 371.854822,1.22511517e-13 354.362252,2.70106186e-14 C336.869682,-7.12872228e-14 219.778746,1.30982554e-13 193.889373,1.22334696e-13 C168,1.13686838e-13 168,1.78984013e-13 168,11.7285156 C168,23.4570313 168,24.0618566 177.033904,24.0618566 C186.067809,24.0618566 206.850442,24.0618566 206.850442,24.0618566" id="wire" stroke="#D2E9EA" stroke-width="3"></path>
            <path d="M15,78 L109.847656,78" id="wire" stroke="#D2E9EA" stroke-width="3"></path>
            <path d="M14,78 C14,78 27.3540875,78 41.3540875,78 C55.3540875,78 55.3540875,78 55.3540875,97.0898438 C55.3540875,116.179688 55.3540875,100.785198 55.3540875,124.785198 C55.3540875,148.785198 55.3540875,149.785198 75.4492188,149.785198 C95.54435,149.785198 119.570312,150 119.570312,150" id="wire" stroke="#D2E9EA" stroke-width="3"></path>
            <path d="M13,204 L207.338335,204" id="wire" stroke="#D2E9EA" stroke-width="3"></path>
            <path d="M130.130859,150.25 L205.234734,150.25" id="wire" stroke="#D2E9EA" stroke-width="3"></path>
        </g>
    </g>
</svg>