<?xml version="1.0" encoding="UTF-8" standalone="no"?>
<svg width="828px" height="828px" viewBox="0 0 828 828" version="1.1" xmlns="http://www.w3.org/2000/svg" xmlns:xlink="http://www.w3.org/1999/xlink">
    <!-- Generator: Sketch 41.2 (35397) - http://www.bohemiancoding.com/sketch -->
    <title>pixel-display</title>
    <desc>Created with Sketch.</desc>
    <defs></defs>
    <g id="Page-1" stroke="none" stroke-width="1" fill="none" fill-rule="evenodd">
        <g id="programmable" transform="translate(-1438.000000, -2508.000000)" fill="#D2E9EA">
            <g id="pixel-display" transform="translate(1438.000000, 2508.000000)">
                <rect id="Rectangle" x="0" y="0" width="99.9977769" height="100"></rect>
                <rect id="Rectangle-Copy-9" x="520" y="0" width="99.9977769" height="100"></rect>
                <rect id="Rectangle-Copy-13" x="624" y="0" width="99.9977769" height="100"></rect>
                <rect id="Rectangle-Copy-14" x="728" y="0" width="99.9977769" height="100"></rect>
                <rect id="Rectangle-Copy-8" x="104" y="0" width="99.9977769" height="100"></rect>
                <rect id="Rectangle-Copy-10" x="208" y="0" width="99.9977769" height="100"></rect>
                <rect id="Rectangle-Copy-11" x="312" y="0" width="99.9977769" height="100"></rect>
                <rect id="Rectangle-Copy-12" x="416" y="0" width="99.9977769" height="100"></rect>
                <rect id="Rectangle" x="0" y="208" width="99.9977769" height="100"></rect>
                <rect id="Rectangle-Copy-9" x="520" y="208" width="99.9977769" height="100"></rect>
                <rect id="Rectangle-Copy-13" x="624" y="208" width="99.9977769" height="100"></rect>
                <rect id="Rectangle-Copy-14" x="728" y="208" width="99.9977769" height="100"></rect>
                <rect id="Rectangle-Copy-8" x="104" y="208" width="99.9977769" height="100"></rect>
                <rect id="Rectangle-Copy-10" x="208" y="208" width="99.9977769" height="100"></rect>
                <rect id="Rectangle-Copy-11" x="312" y="208" width="99.9977769" height="100"></rect>
                <rect id="Rectangle-Copy-12" x="416" y="208" width="99.9977769" height="100"></rect>
                <rect id="Rectangle" x="0" y="416" width="99.9977769" height="100"></rect>
                <rect id="Rectangle-Copy-9" x="520" y="416" width="99.9977769" height="100"></rect>
                <rect id="Rectangle-Copy-13" x="624" y="416" width="99.9977769" height="100"></rect>
                <rect id="Rectangle-Copy-14" x="728" y="416" width="99.9977769" height="100"></rect>
                <rect id="Rectangle-Copy-8" x="104" y="416" width="99.9977769" height="100"></rect>
                <rect id="Rectangle-Copy-10" x="208" y="416" width="99.9977769" height="100"></rect>
                <rect id="Rectangle-Copy-11" x="312" y="416" width="99.9977769" height="100"></rect>
                <rect id="Rectangle-Copy-12" x="416" y="416" width="99.9977769" height="100"></rect>
                <rect id="Rectangle" x="0" y="520" width="99.9977769" height="100"></rect>
                <rect id="Rectangle-Copy-9" x="520" y="520" width="99.9977769" height="100"></rect>
                <rect id="Rectangle-Copy-13" x="624" y="520" width="99.9977769" height="100"></rect>
                <rect id="Rectangle-Copy-14" x="728" y="520" width="99.9977769" height="100"></rect>
                <rect id="Rectangle-Copy-8" x="104" y="520" width="99.9977769" height="100"></rect>
                <rect id="Rectangle-Copy-10" x="208" y="520" width="99.9977769" height="100"></rect>
                <rect id="Rectangle-Copy-11" x="312" y="520" width="99.9977769" height="100"></rect>
                <rect id="Rectangle-Copy-12" x="416" y="520" width="99.9977769" height="100"></rect>
                <rect id="Rectangle" x="0" y="104" width="99.9977769" height="100"></rect>
                <rect id="Rectangle-Copy-9" x="520" y="104" width="99.9977769" height="100"></rect>
                <rect id="Rectangle-Copy-13" x="624" y="104" width="99.9977769" height="100"></rect>
                <rect id="Rectangle-Copy-14" x="728" y="104" width="99.9977769" height="100"></rect>
                <rect id="Rectangle-Copy-8" x="104" y="104" width="99.9977769" height="100"></rect>
                <rect id="Rectangle-Copy-10" x="208" y="104" width="99.9977769" height="100"></rect>
                <rect id="Rectangle-Copy-11" x="312" y="104" width="99.9977769" height="100"></rect>
                <rect id="Rectangle-Copy-12" x="416" y="104" width="99.9977769" height="100"></rect>
                <rect id="Rectangle" x="0" y="312" width="99.9977769" height="100"></rect>
                <rect id="Rectangle-Copy-9" x="520" y="312" width="99.9977769" height="100"></rect>
                <rect id="Rectangle-Copy-13" x="624" y="312" width="99.9977769" height="100"></rect>
                <rect id="Rectangle-Copy-14" x="728" y="312" width="99.9977769" height="100"></rect>
                <rect id="Rectangle-Copy-8" x="104" y="312" width="99.9977769" height="100"></rect>
                <rect id="Rectangle-Copy-10" x="208" y="312" width="99.9977769" height="100"></rect>
                <rect id="Rectangle-Copy-11" x="312" y="312" width="99.9977769" height="100"></rect>
                <rect id="Rectangle-Copy-12" x="416" y="312" width="99.9977769" height="100"></rect>
                <rect id="Rectangle" x="0" y="624" width="99.9977769" height="100"></rect>
                <rect id="Rectangle-Copy-9" x="520" y="624" width="99.9977769" height="100"></rect>
                <rect id="Rectangle-Copy-13" x="624" y="624" width="99.9977769" height="100"></rect>
                <rect id="Rectangle-Copy-14" x="728" y="624" width="99.9977769" height="100"></rect>
                <rect id="Rectangle-Copy-8" x="104" y="624" width="99.9977769" height="100"></rect>
                <rect id="Rectangle-Copy-10" x="208" y="624" width="99.9977769" height="100"></rect>
                <rect id="Rectangle-Copy-11" x="312" y="624" width="99.9977769" height="100"></rect>
                <rect id="Rectangle-Copy-12" x="416" y="624" width="99.9977769" height="100"></rect>
                <rect id="Rectangle" x="0" y="728" width="99.9977769" height="100"></rect>
                <rect id="Rectangle-Copy-9" x="520" y="728" width="99.9977769" height="100"></rect>
                <rect id="Rectangle-Copy-13" x="624" y="728" width="99.9977769" height="100"></rect>
                <rect id="Rectangle-Copy-14" x="728" y="728" width="99.9977769" height="100"></rect>
                <rect id="Rectangle-Copy-8" x="104" y="728" width="99.9977769" height="100"></rect>
                <rect id="Rectangle-Copy-10" x="208" y="728" width="99.9977769" height="100"></rect>
                <rect id="Rectangle-Copy-11" x="312" y="728" width="99.9977769" height="100"></rect>
                <rect id="Rectangle-Copy-12" x="416" y="728" width="99.9977769" height="100"></rect>
            </g>
        </g>
    </g>
</svg>